<?xml version="1.0" encoding="UTF-8" standalone="no"?>
<svg
   width="56"
   height="56"
   viewBox="0 0 56 56"
   version="1.1"
   id="svg4"
   sodipodi:docname="favicon.svg"
   inkscape:version="1.2.2 (732a01da63, 2022-12-09)"
   xmlns:inkscape="http://www.inkscape.org/namespaces/inkscape"
   xmlns:sodipodi="http://sodipodi.sourceforge.net/DTD/sodipodi-0.dtd"
   xmlns="http://www.w3.org/2000/svg"
   xmlns:svg="http://www.w3.org/2000/svg">
  <defs
     id="defs8" />
  <sodipodi:namedview
     id="namedview6"
     pagecolor="#ffffff"
     bordercolor="#000000"
     borderopacity="0.25"
     inkscape:showpageshadow="2"
     inkscape:pageopacity="0.0"
     inkscape:pagecheckerboard="0"
     inkscape:deskcolor="#d1d1d1"
     showgrid="false"
     inkscape:zoom="14.803571"
     inkscape:cx="20.636913"
     inkscape:cy="28.337757"
     inkscape:window-width="1468"
     inkscape:window-height="1032"
     inkscape:window-x="1326"
     inkscape:window-y="18"
     inkscape:window-maximized="0"
     inkscape:current-layer="svg4" />
  <circle
     style="fill:#ffffff;stroke-width:1.84067"
     id="path5161"
     cx="28"
     cy="28"
     r="28" />
  <path
     d="m 30.587759,52.963041 c 9.9141,0 16.5469,-6.6562 16.5469,-17.625 v -5.1093 c 0,-5.4141 -2.5547,-8.5547 -6.914,-8.625 -0.5391,-1.711 -1.9454,-2.7657 -3.9141,-2.7657 -0.6563,0 -1.3359,0.1407 -2.0391,0.3516 -0.6094,-1.875 -2.1562,-3.0469 -4.1953,-3.0469 -0.5391,0 -1.1015,0.0704 -1.6641,0.2578 V 8.5958412 c 0,-2.9765 -1.9687,-4.9454 -4.7343,-4.9454 -2.7891,0 -4.7578,1.9689 -4.7578,4.9454 V 28.142741 c 0,0.1172 -0.0704,0.211 -0.1875,0.211 -0.0938,0 -0.1641,-0.0703 -0.1876,-0.1641 l -1.5702,-3.75 c -1.0313,-2.4375 -3.1407,-3.375 -5.3438,-2.5547 -2.4609002,0.9141 -3.3750002,3.3047 -2.3438002,6.2344 l 4.1250002,11.6016 c 3.1172,8.789 8.9063,13.2421 17.1797,13.2421 z m 0.1172,-3.2343 c -6.5625,0 -11.5781,-3.0234 -14.4375,-11.0156 l -4.1484,-11.5782 c -0.4453,-1.2187 -0.1172,-2.1094 0.8203,-2.4844 0.8906,-0.3281 1.7109,0.1875 2.1562,1.1953 l 3.1875,7.1251 c 0.5157,1.1718 1.2422,1.5468 2.0625,1.5468 0.9844,0 1.6875,-0.7734 1.6875,-1.8515 V 8.3851412 c 0,-1.008 0.6798,-1.7112 1.6407,-1.7112 0.9609,0 1.6171,0.7032 1.6171,1.7112 V 25.728741 c 0,0.8203 0.7032,1.4297 1.5235,1.4297 0.7969,0 1.4531,-0.6094 1.4531,-1.4297 v -6.2344 c 0.3985,-0.2109 0.9375,-0.3281 1.4063,-0.3281 1.1718,0 1.875,0.7734 1.875,1.9922 v 5.4609 c 0,0.8672 0.7031,1.4297 1.5,1.4297 0.7734,0 1.4765,-0.5625 1.4765,-1.4297 v -4.4297 c 0.3985,-0.2109 0.9376,-0.3281 1.3828,-0.3281 1.1953,0 1.875,0.7734 1.875,1.9922 v 3.6562 c 0,0.8672 0.7266,1.4532 1.5235,1.4532 0.7734,0 1.4531,-0.586 1.4531,-1.4532 v -2.6953 c 2.0859,0 3.2813,2.1563 3.2813,5.8828 v 4.2657 c 0,9.4218 -5.0625,14.7656 -13.336,14.7656 z"
     id="path2" />
</svg>
